<svg shape-rendering="auto" version="1.1" xmlns="http://www.w3.org/2000/svg" xmlns:xlink="http://www.w3.org/1999/xlink" xmlns:ev="http://www.w3.org/2001/xml-events" width="990" height="990"> <defs> <linearGradient id="gradient" gradientTransform="rotate(0 0.5 0.5)"> <stop offset="0%" stop-color="#000000"></stop><stop offset="100%" stop-color="#555555"></stop> </linearGradient> <mask id="qrcodemask"> <g fill="#fff"> <g> <g transform="translate(8,0) scale(0.002)" > <rect width="500" height="500" /> </g> <g transform="translate(9,0) scale(0.002)" > <rect width="500" height="500" /> </g> <g transform="translate(11,0) scale(0.002)" > <rect width="500" height="500" /> </g> <g transform="translate(13,0) scale(0.002)" > <rect width="500" height="500" /> </g> <g transform="translate(14,0) scale(0.002)" > <rect width="500" height="500" /> </g> <g transform="translate(17,0) scale(0.002)" > <rect width="500" height="500" /> </g> <g transform="translate(18,0) scale(0.002)" > <rect width="500" height="500" /> </g> <g transform="translate(22,0) scale(0.002)" > <rect width="500" height="500" /> </g> <g transform="translate(24,0) scale(0.002)" > <rect width="500" height="500" /> </g> <g transform="translate(10,1) scale(0.002)" > <rect width="500" height="500" /> </g> <g transform="translate(12,1) scale(0.002)" > <rect width="500" height="500" /> </g> <g transform="translate(15,1) scale(0.002)" > <rect width="500" height="500" /> </g> <g transform="translate(16,1) scale(0.002)" > <rect width="500" height="500" /> </g> <g transform="translate(17,1) scale(0.002)" > <rect width="500" height="500" /> </g> <g transform="translate(18,1) scale(0.002)" > <rect width="500" height="500" /> </g> <g transform="translate(19,1) scale(0.002)" > <rect width="500" height="500" /> </g> <g transform="translate(21,1) scale(0.002)" > <rect width="500" height="500" /> </g> <g transform="translate(22,1) scale(0.002)" > <rect width="500" height="500" /> </g> <g transform="translate(24,1) scale(0.002)" > <rect width="500" height="500" /> </g> <g transform="translate(8,2) scale(0.002)" > <rect width="500" height="500" /> </g> <g transform="translate(9,2) scale(0.002)" > <rect width="500" height="500" /> </g> <g transform="translate(12,2) scale(0.002)" > <rect width="500" height="500" /> </g> <g transform="translate(13,2) scale(0.002)" > <rect width="500" height="500" /> </g> <g transform="translate(16,2) scale(0.002)" > <rect width="500" height="500" /> </g> <g transform="translate(21,2) scale(0.002)" > <rect width="500" height="500" /> </g> <g transform="translate(22,2) scale(0.002)" > <rect width="500" height="500" /> </g> <g transform="translate(23,2) scale(0.002)" > <rect width="500" height="500" /> </g> <g transform="translate(24,2) scale(0.002)" > <rect width="500" height="500" /> </g> <g transform="translate(9,3) scale(0.002)" > <rect width="500" height="500" /> </g> <g transform="translate(13,3) scale(0.002)" > <rect width="500" height="500" /> </g> <g transform="translate(14,3) scale(0.002)" > <rect width="500" height="500" /> </g> <g transform="translate(16,3) scale(0.002)" > <rect width="500" height="500" /> </g> <g transform="translate(18,3) scale(0.002)" > <rect width="500" height="500" /> </g> <g transform="translate(19,3) scale(0.002)" > <rect width="500" height="500" /> </g> <g transform="translate(21,3) scale(0.002)" > <rect width="500" height="500" /> </g> <g transform="translate(23,3) scale(0.002)" > <rect width="500" height="500" /> </g> <g transform="translate(24,3) scale(0.002)" > <rect width="500" height="500" /> </g> <g transform="translate(8,4) scale(0.002)" > <rect width="500" height="500" /> </g> <g transform="translate(9,4) scale(0.002)" > <rect width="500" height="500" /> </g> <g transform="translate(13,4) scale(0.002)" > <rect width="500" height="500" /> </g> <g transform="translate(14,4) scale(0.002)" > <rect width="500" height="500" /> </g> <g transform="translate(15,4) scale(0.002)" > <rect width="500" height="500" /> </g> <g transform="translate(18,4) scale(0.002)" > <rect width="500" height="500" /> </g> <g transform="translate(20,4) scale(0.002)" > <rect width="500" height="500" /> </g> <g transform="translate(21,4) scale(0.002)" > <rect width="500" height="500" /> </g> <g transform="translate(22,4) scale(0.002)" > <rect width="500" height="500" /> </g> <g transform="translate(24,4) scale(0.002)" > <rect width="500" height="500" /> </g> <g transform="translate(10,5) scale(0.002)" > <rect width="500" height="500" /> </g> <g transform="translate(11,5) scale(0.002)" > <rect width="500" height="500" /> </g> <g transform="translate(12,5) scale(0.002)" > <rect width="500" height="500" /> </g> <g transform="translate(14,5) scale(0.002)" > <rect width="500" height="500" /> </g> <g transform="translate(15,5) scale(0.002)" > <rect width="500" height="500" /> </g> <g transform="translate(17,5) scale(0.002)" > <rect width="500" height="500" /> </g> <g transform="translate(18,5) scale(0.002)" > <rect width="500" height="500" /> </g> <g transform="translate(19,5) scale(0.002)" > <rect width="500" height="500" /> </g> <g transform="translate(20,5) scale(0.002)" > <rect width="500" height="500" /> </g> <g transform="translate(22,5) scale(0.002)" > <rect width="500" height="500" /> </g> <g transform="translate(8,6) scale(0.002)" > <rect width="500" height="500" /> </g> <g transform="translate(10,6) scale(0.002)" > <rect width="500" height="500" /> </g> <g transform="translate(12,6) scale(0.002)" > <rect width="500" height="500" /> </g> <g transform="translate(14,6) scale(0.002)" > <rect width="500" height="500" /> </g> <g transform="translate(16,6) scale(0.002)" > <rect width="500" height="500" /> </g> <g transform="translate(18,6) scale(0.002)" > <rect width="500" height="500" /> </g> <g transform="translate(20,6) scale(0.002)" > <rect width="500" height="500" /> </g> <g transform="translate(22,6) scale(0.002)" > <rect width="500" height="500" /> </g> <g transform="translate(24,6) scale(0.002)" > <rect width="500" height="500" /> </g> <g transform="translate(8,7) scale(0.002)" > <rect width="500" height="500" /> </g> <g transform="translate(9,7) scale(0.002)" > <rect width="500" height="500" /> </g> <g transform="translate(11,7) scale(0.002)" > <rect width="500" height="500" /> </g> <g transform="translate(13,7) scale(0.002)" > <rect width="500" height="500" /> </g> <g transform="translate(16,7) scale(0.002)" > <rect width="500" height="500" /> </g> <g transform="translate(17,7) scale(0.002)" > <rect width="500" height="500" /> </g> <g transform="translate(22,7) scale(0.002)" > <rect width="500" height="500" /> </g> <g transform="translate(24,7) scale(0.002)" > <rect width="500" height="500" /> </g> <g transform="translate(5,8) scale(0.002)" > <rect width="500" height="500" /> </g> <g transform="translate(6,8) scale(0.002)" > <rect width="500" height="500" /> </g> <g transform="translate(9,8) scale(0.002)" > <rect width="500" height="500" /> </g> <g transform="translate(10,8) scale(0.002)" > <rect width="500" height="500" /> </g> <g transform="translate(11,8) scale(0.002)" > <rect width="500" height="500" /> </g> <g transform="translate(12,8) scale(0.002)" > <rect width="500" height="500" /> </g> <g transform="translate(13,8) scale(0.002)" > <rect width="500" height="500" /> </g> <g transform="translate(16,8) scale(0.002)" > <rect width="500" height="500" /> </g> <g transform="translate(19,8) scale(0.002)" > <rect width="500" height="500" /> </g> <g transform="translate(20,8) scale(0.002)" > <rect width="500" height="500" /> </g> <g transform="translate(23,8) scale(0.002)" > <rect width="500" height="500" /> </g> <g transform="translate(26,8) scale(0.002)" > <rect width="500" height="500" /> </g> <g transform="translate(28,8) scale(0.002)" > <rect width="500" height="500" /> </g> <g transform="translate(30,8) scale(0.002)" > <rect width="500" height="500" /> </g> <g transform="translate(32,8) scale(0.002)" > <rect width="500" height="500" /> </g> <g transform="translate(0,9) scale(0.002)" > <rect width="500" height="500" /> </g> <g transform="translate(2,9) scale(0.002)" > <rect width="500" height="500" /> </g> <g transform="translate(3,9) scale(0.002)" > <rect width="500" height="500" /> </g> <g transform="translate(4,9) scale(0.002)" > <rect width="500" height="500" /> </g> <g transform="translate(7,9) scale(0.002)" > <rect width="500" height="500" /> </g> <g transform="translate(11,9) scale(0.002)" > <rect width="500" height="500" /> </g> <g transform="translate(13,9) scale(0.002)" > <rect width="500" height="500" /> </g> <g transform="translate(17,9) scale(0.002)" > <rect width="500" height="500" /> </g> <g transform="translate(19,9) scale(0.002)" > <rect width="500" height="500" /> </g> <g transform="translate(21,9) scale(0.002)" > <rect width="500" height="500" /> </g> <g transform="translate(23,9) scale(0.002)" > <rect width="500" height="500" /> </g> <g transform="translate(24,9) scale(0.002)" > <rect width="500" height="500" /> </g> <g transform="translate(25,9) scale(0.002)" > <rect width="500" height="500" /> </g> <g transform="translate(27,9) scale(0.002)" > <rect width="500" height="500" /> </g> <g transform="translate(28,9) scale(0.002)" > <rect width="500" height="500" /> </g> <g transform="translate(29,9) scale(0.002)" > <rect width="500" height="500" /> </g> <g transform="translate(31,9) scale(0.002)" > <rect width="500" height="500" /> </g> <g transform="translate(3,10) scale(0.002)" > <rect width="500" height="500" /> </g> <g transform="translate(6,10) scale(0.002)" > <rect width="500" height="500" /> </g> <g transform="translate(7,10) scale(0.002)" > <rect width="500" height="500" /> </g> <g transform="translate(8,10) scale(0.002)" > <rect width="500" height="500" /> </g> <g transform="translate(9,10) scale(0.002)" > <rect width="500" height="500" /> </g> <g transform="translate(10,10) scale(0.002)" > <rect width="500" height="500" /> </g> <g transform="translate(11,10) scale(0.002)" > <rect width="500" height="500" /> </g> <g transform="translate(12,10) scale(0.002)" > <rect width="500" height="500" /> </g> <g transform="translate(13,10) scale(0.002)" > <rect width="500" height="500" /> </g> <g transform="translate(15,10) scale(0.002)" > <rect width="500" height="500" /> </g> <g transform="translate(17,10) scale(0.002)" > <rect width="500" height="500" /> </g> <g transform="translate(22,10) scale(0.002)" > <rect width="500" height="500" /> </g> <g transform="translate(24,10) scale(0.002)" > <rect width="500" height="500" /> </g> <g transform="translate(26,10) scale(0.002)" > <rect width="500" height="500" /> </g> <g transform="translate(27,10) scale(0.002)" > <rect width="500" height="500" /> </g> <g transform="translate(29,10) scale(0.002)" > <rect width="500" height="500" /> </g> <g transform="translate(31,10) scale(0.002)" > <rect width="500" height="500" /> </g> <g transform="translate(1,11) scale(0.002)" > <rect width="500" height="500" /> </g> <g transform="translate(2,11) scale(0.002)" > <rect width="500" height="500" /> </g> <g transform="translate(4,11) scale(0.002)" > <rect width="500" height="500" /> </g> <g transform="translate(5,11) scale(0.002)" > <rect width="500" height="500" /> </g> <g transform="translate(9,11) scale(0.002)" > <rect width="500" height="500" /> </g> <g transform="translate(13,11) scale(0.002)" > <rect width="500" height="500" /> </g> <g transform="translate(15,11) scale(0.002)" > <rect width="500" height="500" /> </g> <g transform="translate(16,11) scale(0.002)" > <rect width="500" height="500" /> </g> <g transform="translate(17,11) scale(0.002)" > <rect width="500" height="500" /> </g> <g transform="translate(19,11) scale(0.002)" > <rect width="500" height="500" /> </g> <g transform="translate(21,11) scale(0.002)" > <rect width="500" height="500" /> </g> <g transform="translate(23,11) scale(0.002)" > <rect width="500" height="500" /> </g> <g transform="translate(24,11) scale(0.002)" > <rect width="500" height="500" /> </g> <g transform="translate(25,11) scale(0.002)" > <rect width="500" height="500" /> </g> <g transform="translate(27,11) scale(0.002)" > <rect width="500" height="500" /> </g> <g transform="translate(29,11) scale(0.002)" > <rect width="500" height="500" /> </g> <g transform="translate(30,11) scale(0.002)" > <rect width="500" height="500" /> </g> <g transform="translate(31,11) scale(0.002)" > <rect width="500" height="500" /> </g> <g transform="translate(0,12) scale(0.002)" > <rect width="500" height="500" /> </g> <g transform="translate(2,12) scale(0.002)" > <rect width="500" height="500" /> </g> <g transform="translate(3,12) scale(0.002)" > <rect width="500" height="500" /> </g> <g transform="translate(5,12) scale(0.002)" > <rect width="500" height="500" /> </g> <g transform="translate(6,12) scale(0.002)" > <rect width="500" height="500" /> </g> <g transform="translate(7,12) scale(0.002)" > <rect width="500" height="500" /> </g> <g transform="translate(9,12) scale(0.002)" > <rect width="500" height="500" /> </g> <g transform="translate(10,12) scale(0.002)" > <rect width="500" height="500" /> </g> <g transform="translate(11,12) scale(0.002)" > <rect width="500" height="500" /> </g> <g transform="translate(12,12) scale(0.002)" > <rect width="500" height="500" /> </g> <g transform="translate(14,12) scale(0.002)" > <rect width="500" height="500" /> </g> <g transform="translate(19,12) scale(0.002)" > <rect width="500" height="500" /> </g> <g transform="translate(21,12) scale(0.002)" > <rect width="500" height="500" /> </g> <g transform="translate(23,12) scale(0.002)" > <rect width="500" height="500" /> </g> <g transform="translate(24,12) scale(0.002)" > <rect width="500" height="500" /> </g> <g transform="translate(26,12) scale(0.002)" > <rect width="500" height="500" /> </g> <g transform="translate(31,12) scale(0.002)" > <rect width="500" height="500" /> </g> <g transform="translate(32,12) scale(0.002)" > <rect width="500" height="500" /> </g> <g transform="translate(1,13) scale(0.002)" > <rect width="500" height="500" /> </g> <g transform="translate(4,13) scale(0.002)" > <rect width="500" height="500" /> </g> <g transform="translate(7,13) scale(0.002)" > <rect width="500" height="500" /> </g> <g transform="translate(9,13) scale(0.002)" > <rect width="500" height="500" /> </g> <g transform="translate(14,13) scale(0.002)" > <rect width="500" height="500" /> </g> <g transform="translate(17,13) scale(0.002)" > <rect width="500" height="500" /> </g> <g transform="translate(18,13) scale(0.002)" > <rect width="500" height="500" /> </g> <g transform="translate(19,13) scale(0.002)" > <rect width="500" height="500" /> </g> <g transform="translate(20,13) scale(0.002)" > <rect width="500" height="500" /> </g> <g transform="translate(21,13) scale(0.002)" > <rect width="500" height="500" /> </g> <g transform="translate(23,13) scale(0.002)" > <rect width="500" height="500" /> </g> <g transform="translate(25,13) scale(0.002)" > <rect width="500" height="500" /> </g> <g transform="translate(26,13) scale(0.002)" > <rect width="500" height="500" /> </g> <g transform="translate(29,13) scale(0.002)" > <rect width="500" height="500" /> </g> <g transform="translate(32,13) scale(0.002)" > <rect width="500" height="500" /> </g> <g transform="translate(0,14) scale(0.002)" > <rect width="500" height="500" /> </g> <g transform="translate(2,14) scale(0.002)" > <rect width="500" height="500" /> </g> <g transform="translate(3,14) scale(0.002)" > <rect width="500" height="500" /> </g> <g transform="translate(5,14) scale(0.002)" > <rect width="500" height="500" /> </g> <g transform="translate(6,14) scale(0.002)" > <rect width="500" height="500" /> </g> <g transform="translate(7,14) scale(0.002)" > <rect width="500" height="500" /> </g> <g transform="translate(11,14) scale(0.002)" > <rect width="500" height="500" /> </g> <g transform="translate(12,14) scale(0.002)" > <rect width="500" height="500" /> </g> <g transform="translate(14,14) scale(0.002)" > <rect width="500" height="500" /> </g> <g transform="translate(16,14) scale(0.002)" > <rect width="500" height="500" /> </g> <g transform="translate(20,14) scale(0.002)" > <rect width="500" height="500" /> </g> <g transform="translate(22,14) scale(0.002)" > <rect width="500" height="500" /> </g> <g transform="translate(24,14) scale(0.002)" > <rect width="500" height="500" /> </g> <g transform="translate(25,14) scale(0.002)" > <rect width="500" height="500" /> </g> <g transform="translate(28,14) scale(0.002)" > <rect width="500" height="500" /> </g> <g transform="translate(31,14) scale(0.002)" > <rect width="500" height="500" /> </g> <g transform="translate(0,15) scale(0.002)" > <rect width="500" height="500" /> </g> <g transform="translate(2,15) scale(0.002)" > <rect width="500" height="500" /> </g> <g transform="translate(5,15) scale(0.002)" > <rect width="500" height="500" /> </g> <g transform="translate(9,15) scale(0.002)" > <rect width="500" height="500" /> </g> <g transform="translate(12,15) scale(0.002)" > <rect width="500" height="500" /> </g> <g transform="translate(13,15) scale(0.002)" > <rect width="500" height="500" /> </g> <g transform="translate(15,15) scale(0.002)" > <rect width="500" height="500" /> </g> <g transform="translate(16,15) scale(0.002)" > <rect width="500" height="500" /> </g> <g transform="translate(18,15) scale(0.002)" > <rect width="500" height="500" /> </g> <g transform="translate(20,15) scale(0.002)" > <rect width="500" height="500" /> </g> <g transform="translate(23,15) scale(0.002)" > <rect width="500" height="500" /> </g> <g transform="translate(28,15) scale(0.002)" > <rect width="500" height="500" /> </g> <g transform="translate(30,15) scale(0.002)" > <rect width="500" height="500" /> </g> <g transform="translate(32,15) scale(0.002)" > <rect width="500" height="500" /> </g> <g transform="translate(3,16) scale(0.002)" > <rect width="500" height="500" /> </g> <g transform="translate(6,16) scale(0.002)" > <rect width="500" height="500" /> </g> <g transform="translate(8,16) scale(0.002)" > <rect width="500" height="500" /> </g> <g transform="translate(14,16) scale(0.002)" > <rect width="500" height="500" /> </g> <g transform="translate(15,16) scale(0.002)" > <rect width="500" height="500" /> </g> <g transform="translate(20,16) scale(0.002)" > <rect width="500" height="500" /> </g> <g transform="translate(23,16) scale(0.002)" > <rect width="500" height="500" /> </g> <g transform="translate(27,16) scale(0.002)" > <rect width="500" height="500" /> </g> <g transform="translate(28,16) scale(0.002)" > <rect width="500" height="500" /> </g> <g transform="translate(29,16) scale(0.002)" > <rect width="500" height="500" /> </g> <g transform="translate(1,17) scale(0.002)" > <rect width="500" height="500" /> </g> <g transform="translate(3,17) scale(0.002)" > <rect width="500" height="500" /> </g> <g transform="translate(5,17) scale(0.002)" > <rect width="500" height="500" /> </g> <g transform="translate(7,17) scale(0.002)" > <rect width="500" height="500" /> </g> <g transform="translate(10,17) scale(0.002)" > <rect width="500" height="500" /> </g> <g transform="translate(11,17) scale(0.002)" > <rect width="500" height="500" /> </g> <g transform="translate(17,17) scale(0.002)" > <rect width="500" height="500" /> </g> <g transform="translate(23,17) scale(0.002)" > <rect width="500" height="500" /> </g> <g transform="translate(24,17) scale(0.002)" > <rect width="500" height="500" /> </g> <g transform="translate(26,17) scale(0.002)" > <rect width="500" height="500" /> </g> <g transform="translate(27,17) scale(0.002)" > <rect width="500" height="500" /> </g> <g transform="translate(32,17) scale(0.002)" > <rect width="500" height="500" /> </g> <g transform="translate(0,18) scale(0.002)" > <rect width="500" height="500" /> </g> <g transform="translate(1,18) scale(0.002)" > <rect width="500" height="500" /> </g> <g transform="translate(3,18) scale(0.002)" > <rect width="500" height="500" /> </g> <g transform="translate(4,18) scale(0.002)" > <rect width="500" height="500" /> </g> <g transform="translate(6,18) scale(0.002)" > <rect width="500" height="500" /> </g> <g transform="translate(11,18) scale(0.002)" > <rect width="500" height="500" /> </g> <g transform="translate(12,18) scale(0.002)" > <rect width="500" height="500" /> </g> <g transform="translate(14,18) scale(0.002)" > <rect width="500" height="500" /> </g> <g transform="translate(17,18) scale(0.002)" > <rect width="500" height="500" /> </g> <g transform="translate(18,18) scale(0.002)" > <rect width="500" height="500" /> </g> <g transform="translate(19,18) scale(0.002)" > <rect width="500" height="500" /> </g> <g transform="translate(20,18) scale(0.002)" > <rect width="500" height="500" /> </g> <g transform="translate(22,18) scale(0.002)" > <rect width="500" height="500" /> </g> <g transform="translate(23,18) scale(0.002)" > <rect width="500" height="500" /> </g> <g transform="translate(25,18) scale(0.002)" > <rect width="500" height="500" /> </g> <g transform="translate(27,18) scale(0.002)" > <rect width="500" height="500" /> </g> <g transform="translate(28,18) scale(0.002)" > <rect width="500" height="500" /> </g> <g transform="translate(29,18) scale(0.002)" > <rect width="500" height="500" /> </g> <g transform="translate(30,18) scale(0.002)" > <rect width="500" height="500" /> </g> <g transform="translate(31,18) scale(0.002)" > <rect width="500" height="500" /> </g> <g transform="translate(32,18) scale(0.002)" > <rect width="500" height="500" /> </g> <g transform="translate(1,19) scale(0.002)" > <rect width="500" height="500" /> </g> <g transform="translate(7,19) scale(0.002)" > <rect width="500" height="500" /> </g> <g transform="translate(9,19) scale(0.002)" > <rect width="500" height="500" /> </g> <g transform="translate(10,19) scale(0.002)" > <rect width="500" height="500" /> </g> <g transform="translate(12,19) scale(0.002)" > <rect width="500" height="500" /> </g> <g transform="translate(15,19) scale(0.002)" > <rect width="500" height="500" /> </g> <g transform="translate(17,19) scale(0.002)" > <rect width="500" height="500" /> </g> <g transform="translate(18,19) scale(0.002)" > <rect width="500" height="500" /> </g> <g transform="translate(19,19) scale(0.002)" > <rect width="500" height="500" /> </g> <g transform="translate(23,19) scale(0.002)" > <rect width="500" height="500" /> </g> <g transform="translate(24,19) scale(0.002)" > <rect width="500" height="500" /> </g> <g transform="translate(27,19) scale(0.002)" > <rect width="500" height="500" /> </g> <g transform="translate(29,19) scale(0.002)" > <rect width="500" height="500" /> </g> <g transform="translate(30,19) scale(0.002)" > <rect width="500" height="500" /> </g> <g transform="translate(31,19) scale(0.002)" > <rect width="500" height="500" /> </g> <g transform="translate(0,20) scale(0.002)" > <rect width="500" height="500" /> </g> <g transform="translate(5,20) scale(0.002)" > <rect width="500" height="500" /> </g> <g transform="translate(6,20) scale(0.002)" > <rect width="500" height="500" /> </g> <g transform="translate(8,20) scale(0.002)" > <rect width="500" height="500" /> </g> <g transform="translate(9,20) scale(0.002)" > <rect width="500" height="500" /> </g> <g transform="translate(12,20) scale(0.002)" > <rect width="500" height="500" /> </g> <g transform="translate(14,20) scale(0.002)" > <rect width="500" height="500" /> </g> <g transform="translate(16,20) scale(0.002)" > <rect width="500" height="500" /> </g> <g transform="translate(20,20) scale(0.002)" > <rect width="500" height="500" /> </g> <g transform="translate(22,20) scale(0.002)" > <rect width="500" height="500" /> </g> <g transform="translate(27,20) scale(0.002)" > <rect width="500" height="500" /> </g> <g transform="translate(28,20) scale(0.002)" > <rect width="500" height="500" /> </g> <g transform="translate(29,20) scale(0.002)" > <rect width="500" height="500" /> </g> <g transform="translate(0,21) scale(0.002)" > <rect width="500" height="500" /> </g> <g transform="translate(1,21) scale(0.002)" > <rect width="500" height="500" /> </g> <g transform="translate(2,21) scale(0.002)" > <rect width="500" height="500" /> </g> <g transform="translate(3,21) scale(0.002)" > <rect width="500" height="500" /> </g> <g transform="translate(5,21) scale(0.002)" > <rect width="500" height="500" /> </g> <g transform="translate(11,21) scale(0.002)" > <rect width="500" height="500" /> </g> <g transform="translate(16,21) scale(0.002)" > <rect width="500" height="500" /> </g> <g transform="translate(18,21) scale(0.002)" > <rect width="500" height="500" /> </g> <g transform="translate(19,21) scale(0.002)" > <rect width="500" height="500" /> </g> <g transform="translate(20,21) scale(0.002)" > <rect width="500" height="500" /> </g> <g transform="translate(22,21) scale(0.002)" > <rect width="500" height="500" /> </g> <g transform="translate(23,21) scale(0.002)" > <rect width="500" height="500" /> </g> <g transform="translate(24,21) scale(0.002)" > <rect width="500" height="500" /> </g> <g transform="translate(25,21) scale(0.002)" > <rect width="500" height="500" /> </g> <g transform="translate(27,21) scale(0.002)" > <rect width="500" height="500" /> </g> <g transform="translate(28,21) scale(0.002)" > <rect width="500" height="500" /> </g> <g transform="translate(30,21) scale(0.002)" > <rect width="500" height="500" /> </g> <g transform="translate(0,22) scale(0.002)" > <rect width="500" height="500" /> </g> <g transform="translate(3,22) scale(0.002)" > <rect width="500" height="500" /> </g> <g transform="translate(4,22) scale(0.002)" > <rect width="500" height="500" /> </g> <g transform="translate(5,22) scale(0.002)" > <rect width="500" height="500" /> </g> <g transform="translate(6,22) scale(0.002)" > <rect width="500" height="500" /> </g> <g transform="translate(7,22) scale(0.002)" > <rect width="500" height="500" /> </g> <g transform="translate(10,22) scale(0.002)" > <rect width="500" height="500" /> </g> <g transform="translate(12,22) scale(0.002)" > <rect width="500" height="500" /> </g> <g transform="translate(15,22) scale(0.002)" > <rect width="500" height="500" /> </g> <g transform="translate(16,22) scale(0.002)" > <rect width="500" height="500" /> </g> <g transform="translate(17,22) scale(0.002)" > <rect width="500" height="500" /> </g> <g transform="translate(18,22) scale(0.002)" > <rect width="500" height="500" /> </g> <g transform="translate(19,22) scale(0.002)" > <rect width="500" height="500" /> </g> <g transform="translate(20,22) scale(0.002)" > <rect width="500" height="500" /> </g> <g transform="translate(21,22) scale(0.002)" > <rect width="500" height="500" /> </g> <g transform="translate(27,22) scale(0.002)" > <rect width="500" height="500" /> </g> <g transform="translate(0,23) scale(0.002)" > <rect width="500" height="500" /> </g> <g transform="translate(3,23) scale(0.002)" > <rect width="500" height="500" /> </g> <g transform="translate(5,23) scale(0.002)" > <rect width="500" height="500" /> </g> <g transform="translate(7,23) scale(0.002)" > <rect width="500" height="500" /> </g> <g transform="translate(8,23) scale(0.002)" > <rect width="500" height="500" /> </g> <g transform="translate(10,23) scale(0.002)" > <rect width="500" height="500" /> </g> <g transform="translate(11,23) scale(0.002)" > <rect width="500" height="500" /> </g> <g transform="translate(12,23) scale(0.002)" > <rect width="500" height="500" /> </g> <g transform="translate(13,23) scale(0.002)" > <rect width="500" height="500" /> </g> <g transform="translate(14,23) scale(0.002)" > <rect width="500" height="500" /> </g> <g transform="translate(17,23) scale(0.002)" > <rect width="500" height="500" /> </g> <g transform="translate(18,23) scale(0.002)" > <rect width="500" height="500" /> </g> <g transform="translate(23,23) scale(0.002)" > <rect width="500" height="500" /> </g> <g transform="translate(28,23) scale(0.002)" > <rect width="500" height="500" /> </g> <g transform="translate(29,23) scale(0.002)" > <rect width="500" height="500" /> </g> <g transform="translate(30,23) scale(0.002)" > <rect width="500" height="500" /> </g> <g transform="translate(31,23) scale(0.002)" > <rect width="500" height="500" /> </g> <g transform="translate(32,23) scale(0.002)" > <rect width="500" height="500" /> </g> <g transform="translate(0,24) scale(0.002)" > <rect width="500" height="500" /> </g> <g transform="translate(1,24) scale(0.002)" > <rect width="500" height="500" /> </g> <g transform="translate(2,24) scale(0.002)" > <rect width="500" height="500" /> </g> <g transform="translate(3,24) scale(0.002)" > <rect width="500" height="500" /> </g> <g transform="translate(4,24) scale(0.002)" > <rect width="500" height="500" /> </g> <g transform="translate(6,24) scale(0.002)" > <rect width="500" height="500" /> </g> <g transform="translate(7,24) scale(0.002)" > <rect width="500" height="500" /> </g> <g transform="translate(8,24) scale(0.002)" > <rect width="500" height="500" /> </g> <g transform="translate(9,24) scale(0.002)" > <rect width="500" height="500" /> </g> <g transform="translate(10,24) scale(0.002)" > <rect width="500" height="500" /> </g> <g transform="translate(12,24) scale(0.002)" > <rect width="500" height="500" /> </g> <g transform="translate(13,24) scale(0.002)" > <rect width="500" height="500" /> </g> <g transform="translate(16,24) scale(0.002)" > <rect width="500" height="500" /> </g> <g transform="translate(18,24) scale(0.002)" > <rect width="500" height="500" /> </g> <g transform="translate(19,24) scale(0.002)" > <rect width="500" height="500" /> </g> <g transform="translate(20,24) scale(0.002)" > <rect width="500" height="500" /> </g> <g transform="translate(22,24) scale(0.002)" > <rect width="500" height="500" /> </g> <g transform="translate(23,24) scale(0.002)" > <rect width="500" height="500" /> </g> <g transform="translate(24,24) scale(0.002)" > <rect width="500" height="500" /> </g> <g transform="translate(25,24) scale(0.002)" > <rect width="500" height="500" /> </g> <g transform="translate(26,24) scale(0.002)" > <rect width="500" height="500" /> </g> <g transform="translate(27,24) scale(0.002)" > <rect width="500" height="500" /> </g> <g transform="translate(28,24) scale(0.002)" > <rect width="500" height="500" /> </g> <g transform="translate(32,24) scale(0.002)" > <rect width="500" height="500" /> </g> <g transform="translate(8,25) scale(0.002)" > <rect width="500" height="500" /> </g> <g transform="translate(9,25) scale(0.002)" > <rect width="500" height="500" /> </g> <g transform="translate(12,25) scale(0.002)" > <rect width="500" height="500" /> </g> <g transform="translate(15,25) scale(0.002)" > <rect width="500" height="500" /> </g> <g transform="translate(16,25) scale(0.002)" > <rect width="500" height="500" /> </g> <g transform="translate(17,25) scale(0.002)" > <rect width="500" height="500" /> </g> <g transform="translate(20,25) scale(0.002)" > <rect width="500" height="500" /> </g> <g transform="translate(22,25) scale(0.002)" > <rect width="500" height="500" /> </g> <g transform="translate(23,25) scale(0.002)" > <rect width="500" height="500" /> </g> <g transform="translate(24,25) scale(0.002)" > <rect width="500" height="500" /> </g> <g transform="translate(28,25) scale(0.002)" > <rect width="500" height="500" /> </g> <g transform="translate(30,25) scale(0.002)" > <rect width="500" height="500" /> </g> <g transform="translate(32,25) scale(0.002)" > <rect width="500" height="500" /> </g> <g transform="translate(12,26) scale(0.002)" > <rect width="500" height="500" /> </g> <g transform="translate(13,26) scale(0.002)" > <rect width="500" height="500" /> </g> <g transform="translate(14,26) scale(0.002)" > <rect width="500" height="500" /> </g> <g transform="translate(15,26) scale(0.002)" > <rect width="500" height="500" /> </g> <g transform="translate(18,26) scale(0.002)" > <rect width="500" height="500" /> </g> <g transform="translate(19,26) scale(0.002)" > <rect width="500" height="500" /> </g> <g transform="translate(20,26) scale(0.002)" > <rect width="500" height="500" /> </g> <g transform="translate(21,26) scale(0.002)" > <rect width="500" height="500" /> </g> <g transform="translate(23,26) scale(0.002)" > <rect width="500" height="500" /> </g> <g transform="translate(24,26) scale(0.002)" > <rect width="500" height="500" /> </g> <g transform="translate(26,26) scale(0.002)" > <rect width="500" height="500" /> </g> <g transform="translate(28,26) scale(0.002)" > <rect width="500" height="500" /> </g> <g transform="translate(30,26) scale(0.002)" > <rect width="500" height="500" /> </g> <g transform="translate(31,26) scale(0.002)" > <rect width="500" height="500" /> </g> <g transform="translate(8,27) scale(0.002)" > <rect width="500" height="500" /> </g> <g transform="translate(9,27) scale(0.002)" > <rect width="500" height="500" /> </g> <g transform="translate(10,27) scale(0.002)" > <rect width="500" height="500" /> </g> <g transform="translate(11,27) scale(0.002)" > <rect width="500" height="500" /> </g> <g transform="translate(12,27) scale(0.002)" > <rect width="500" height="500" /> </g> <g transform="translate(13,27) scale(0.002)" > <rect width="500" height="500" /> </g> <g transform="translate(15,27) scale(0.002)" > <rect width="500" height="500" /> </g> <g transform="translate(16,27) scale(0.002)" > <rect width="500" height="500" /> </g> <g transform="translate(17,27) scale(0.002)" > <rect width="500" height="500" /> </g> <g transform="translate(18,27) scale(0.002)" > <rect width="500" height="500" /> </g> <g transform="translate(19,27) scale(0.002)" > <rect width="500" height="500" /> </g> <g transform="translate(20,27) scale(0.002)" > <rect width="500" height="500" /> </g> <g transform="translate(24,27) scale(0.002)" > <rect width="500" height="500" /> </g> <g transform="translate(28,27) scale(0.002)" > <rect width="500" height="500" /> </g> <g transform="translate(29,27) scale(0.002)" > <rect width="500" height="500" /> </g> <g transform="translate(30,27) scale(0.002)" > <rect width="500" height="500" /> </g> <g transform="translate(31,27) scale(0.002)" > <rect width="500" height="500" /> </g> <g transform="translate(9,28) scale(0.002)" > <rect width="500" height="500" /> </g> <g transform="translate(12,28) scale(0.002)" > <rect width="500" height="500" /> </g> <g transform="translate(13,28) scale(0.002)" > <rect width="500" height="500" /> </g> <g transform="translate(15,28) scale(0.002)" > <rect width="500" height="500" /> </g> <g transform="translate(16,28) scale(0.002)" > <rect width="500" height="500" /> </g> <g transform="translate(18,28) scale(0.002)" > <rect width="500" height="500" /> </g> <g transform="translate(20,28) scale(0.002)" > <rect width="500" height="500" /> </g> <g transform="translate(21,28) scale(0.002)" > <rect width="500" height="500" /> </g> <g transform="translate(24,28) scale(0.002)" > <rect width="500" height="500" /> </g> <g transform="translate(25,28) scale(0.002)" > <rect width="500" height="500" /> </g> <g transform="translate(26,28) scale(0.002)" > <rect width="500" height="500" /> </g> <g transform="translate(27,28) scale(0.002)" > <rect width="500" height="500" /> </g> <g transform="translate(28,28) scale(0.002)" > <rect width="500" height="500" /> </g> <g transform="translate(31,28) scale(0.002)" > <rect width="500" height="500" /> </g> <g transform="translate(32,28) scale(0.002)" > <rect width="500" height="500" /> </g> <g transform="translate(9,29) scale(0.002)" > <rect width="500" height="500" /> </g> <g transform="translate(10,29) scale(0.002)" > <rect width="500" height="500" /> </g> <g transform="translate(11,29) scale(0.002)" > <rect width="500" height="500" /> </g> <g transform="translate(17,29) scale(0.002)" > <rect width="500" height="500" /> </g> <g transform="translate(20,29) scale(0.002)" > <rect width="500" height="500" /> </g> <g transform="translate(22,29) scale(0.002)" > <rect width="500" height="500" /> </g> <g transform="translate(23,29) scale(0.002)" > <rect width="500" height="500" /> </g> <g transform="translate(25,29) scale(0.002)" > <rect width="500" height="500" /> </g> <g transform="translate(27,29) scale(0.002)" > <rect width="500" height="500" /> </g> <g transform="translate(28,29) scale(0.002)" > <rect width="500" height="500" /> </g> <g transform="translate(30,29) scale(0.002)" > <rect width="500" height="500" /> </g> <g transform="translate(32,29) scale(0.002)" > <rect width="500" height="500" /> </g> <g transform="translate(9,30) scale(0.002)" > <rect width="500" height="500" /> </g> <g transform="translate(12,30) scale(0.002)" > <rect width="500" height="500" /> </g> <g transform="translate(15,30) scale(0.002)" > <rect width="500" height="500" /> </g> <g transform="translate(17,30) scale(0.002)" > <rect width="500" height="500" /> </g> <g transform="translate(21,30) scale(0.002)" > <rect width="500" height="500" /> </g> <g transform="translate(28,30) scale(0.002)" > <rect width="500" height="500" /> </g> <g transform="translate(30,30) scale(0.002)" > <rect width="500" height="500" /> </g> <g transform="translate(31,30) scale(0.002)" > <rect width="500" height="500" /> </g> <g transform="translate(32,30) scale(0.002)" > <rect width="500" height="500" /> </g> <g transform="translate(9,31) scale(0.002)" > <rect width="500" height="500" /> </g> <g transform="translate(11,31) scale(0.002)" > <rect width="500" height="500" /> </g> <g transform="translate(12,31) scale(0.002)" > <rect width="500" height="500" /> </g> <g transform="translate(15,31) scale(0.002)" > <rect width="500" height="500" /> </g> <g transform="translate(17,31) scale(0.002)" > <rect width="500" height="500" /> </g> <g transform="translate(22,31) scale(0.002)" > <rect width="500" height="500" /> </g> <g transform="translate(25,31) scale(0.002)" > <rect width="500" height="500" /> </g> <g transform="translate(30,31) scale(0.002)" > <rect width="500" height="500" /> </g> <g transform="translate(9,32) scale(0.002)" > <rect width="500" height="500" /> </g> <g transform="translate(10,32) scale(0.002)" > <rect width="500" height="500" /> </g> <g transform="translate(11,32) scale(0.002)" > <rect width="500" height="500" /> </g> <g transform="translate(13,32) scale(0.002)" > <rect width="500" height="500" /> </g> <g transform="translate(16,32) scale(0.002)" > <rect width="500" height="500" /> </g> <g transform="translate(17,32) scale(0.002)" > <rect width="500" height="500" /> </g> <g transform="translate(21,32) scale(0.002)" > <rect width="500" height="500" /> </g> <g transform="translate(24,32) scale(0.002)" > <rect width="500" height="500" /> </g> <g transform="translate(26,32) scale(0.002)" > <rect width="500" height="500" /> </g> <g transform="translate(29,32) scale(0.002)" > <rect width="500" height="500" /> </g> <g transform="translate(31,32) scale(0.002)" > <rect width="500" height="500" /> </g> </g> </g> </mask> </defs> <g fill="#ffffff" fill-opacity="0"> <rect width="100%" height="100%"></rect> </g> <g transform="translate(0,0) scale(30.0) " > <rect x="0" y="0" width="33" height="33" mask="url(#qrcodemask)" fill="#000000"></rect> <g transform="translate(0,0)"> <g transform="scale(0.01) rotate(0 350 350)" fill="#000000"> <path d="M 0 0 H 700 V 700 H 0 V 0 Z M 100 100 V 600 H 600 V 100 H 100 Z"/> </g> </g> <g transform="translate(2,2)"> <g transform="scale(0.01) rotate(0 150 150)" fill="#000000"> <rect width="300" height="300"/> </g> </g> <g transform="translate(26,0)"> <g transform="scale(0.01) rotate(0 350 350)" fill="#000000"> <path d="M 0 0 H 700 V 700 H 0 V 0 Z M 100 100 V 600 H 600 V 100 H 100 Z"/> </g> </g> <g transform="translate(28,2)"> <g transform="scale(0.01) rotate(0 150 150)" fill="#000000"> <rect width="300" height="300"/> </g> </g> <g transform="translate(0,26)"> <g transform="scale(0.01) rotate(0 350 350)" fill="#000000"> <path d="M 0 0 H 700 V 700 H 0 V 0 Z M 100 100 V 600 H 600 V 100 H 100 Z"/> </g> </g> <g transform="translate(2,28)"> <g transform="scale(0.01) rotate(0 150 150)" fill="#000000"> <rect width="300" height="300"/> </g> </g> <g> </g> </g> </svg>